<svg width="1680" height="195" viewBox="0 0 1680 195" fill="none" xmlns="http://www.w3.org/2000/svg">
<rect x="840" width="840" height="195" fill="#510051"/>
<rect x="854" y="123" width="10.0023" height="10.0023" fill="#CF00CF"/>
<rect x="938" y="99.0078" width="10.0023" height="10.0023" fill="#CF00CF"/>
<rect x="938" y="87" width="10.0023" height="10.0023" fill="#CF00CF"/>
<rect x="926" y="39" width="10.0023" height="10.0023" fill="#CF00CF"/>
<rect x="1346" y="39" width="10.0023" height="10.0023" fill="#CF00CF"/>
<rect x="1298" y="147" width="10.0023" height="10.0023" fill="#CF00CF"/>
<rect x="926" y="27" width="10.0023" height="10.0023" fill="#CF00CF"/>
<rect x="1346" y="27" width="10.0023" height="10.0023" fill="#CF00CF"/>
<rect x="1298" y="159" width="10.0023" height="10.0023" fill="#CF00CF"/>
<rect x="926" y="15" width="10.0023" height="10.0023" fill="#CF00CF"/>
<rect x="1346" y="15" width="10.0023" height="10.0023" fill="#CF00CF"/>
<rect x="1298" y="171" width="10.0023" height="10.0023" fill="#CF00CF"/>
<rect x="926" y="3" width="10.0023" height="10.0023" fill="#CF00CF"/>
<rect x="1346" y="3" width="10.0023" height="10.0023" fill="#CF00CF"/>
<rect x="1297.99" y="183" width="10.0023" height="10.0023" fill="#CF00CF"/>
<rect x="938" y="111" width="10.0023" height="10.0023" fill="#CF00CF"/>
<rect x="938" y="123" width="10.0023" height="10.0023" fill="#CF00CF"/>
<rect x="950" y="123" width="10.0023" height="10.0023" fill="#CF00CF"/>
<rect x="962" y="123" width="10.0023" height="10.0023" fill="#CF00CF"/>
<rect x="962" y="135" width="10.0023" height="10.0023" fill="#CF00CF"/>
<rect x="962" y="147" width="10.0023" height="10.0023" fill="#CF00CF"/>
<rect x="974" y="147" width="10.0023" height="10.0023" fill="#CF00CF"/>
<rect x="974" y="159" width="10.0023" height="10.0023" fill="#CF00CF"/>
<rect x="974" y="171" width="10.0023" height="10.0023" fill="#CF00CF"/>
<rect x="986" y="147" width="10.0023" height="10.0023" fill="#CF00CF"/>
<rect x="986" y="135" width="10.0023" height="10.0023" fill="#CF00CF"/>
<rect x="998" y="135" width="10.0023" height="10.0023" fill="#CF00CF"/>
<rect x="998" y="123" width="10.0023" height="10.0023" fill="#CF00CF"/>
<rect x="998" y="111" width="10.0023" height="10.0023" fill="#CF00CF"/>
<rect x="998" y="99" width="10.0023" height="10.0023" fill="#CF00CF"/>
<rect x="1010" y="99" width="10.0023" height="10.0023" fill="#CF00CF"/>
<rect x="1010" y="87" width="10.0023" height="10.0023" fill="#CF00CF"/>
<rect x="1010" y="75" width="10.0023" height="10.0023" fill="#CF00CF"/>
<rect x="1022" y="75" width="10.0023" height="10.0023" fill="#CF00CF"/>
<rect x="1022" y="63" width="10.0023" height="10.0023" fill="#CF00CF"/>
<rect x="1022" y="51" width="10.0023" height="10.0023" fill="#CF00CF"/>
<rect x="1034" y="75" width="10.0023" height="10.0023" fill="#CF00CF"/>
<rect x="1034" y="87" width="10.0023" height="10.0023" fill="#CF00CF"/>
<rect x="1046" y="87" width="10.0023" height="10.0023" fill="#CF00CF"/>
<rect x="1046" y="99" width="10.0023" height="10.0023" fill="#CF00CF"/>
<rect x="1046" y="111" width="10.0023" height="10.0023" fill="#CF00CF"/>
<rect x="1046" y="123" width="10.0023" height="10.0023" fill="#CF00CF"/>
<rect x="1058" y="87" width="10.0023" height="10.0023" fill="#CF00CF"/>
<rect x="1070" y="87" width="10.0023" height="10.0023" fill="#CF00CF"/>
<rect x="1070" y="99" width="10.0023" height="10.0023" fill="#CF00CF"/>
<rect x="1094" y="111" width="10.0023" height="10.0023" fill="#CF00CF"/>
<rect x="1082" y="99" width="10.0023" height="10.0023" fill="#CF00CF"/>
<rect x="1082" y="111" width="10.0023" height="10.0023" fill="#CF00CF"/>
<rect x="1106" y="99" width="10.0023" height="10.0023" fill="#CF00CF"/>
<rect x="1106" y="111" width="10.0023" height="10.0023" fill="#CF00CF"/>
<rect x="1094" y="123" width="10.0023" height="10.0023" fill="#CF00CF"/>
<rect x="1094" y="135" width="10.0023" height="10.0023" fill="#CF00CF"/>
<rect x="1094" y="147" width="10.0023" height="10.0023" fill="#CF00CF"/>
<rect x="1094" y="159" width="10.0023" height="10.0023" fill="#CF00CF"/>
<rect x="1118" y="99" width="10.0023" height="10.0023" fill="#CF00CF"/>
<rect x="1130" y="99" width="10.0023" height="10.0023" fill="#CF00CF"/>
<rect x="1130" y="87" width="10.0023" height="10.0023" fill="#CF00CF"/>
<rect x="1130" y="75" width="10.0023" height="10.0023" fill="#CF00CF"/>
<rect x="1130" y="63" width="10.0023" height="10.0023" fill="#CF00CF"/>
<rect x="1142" y="63" width="10.0023" height="10.0023" fill="#CF00CF"/>
<rect x="1142" y="51" width="10.0023" height="10.0023" fill="#CF00CF"/>
<rect x="1142" y="39" width="10.0023" height="10.0023" fill="#CF00CF"/>
<rect x="1022" y="39" width="10.0023" height="10.0023" fill="#CF00CF"/>
<rect x="1022" y="27" width="10.0023" height="10.0023" fill="#CF00CF"/>
<rect x="1142" y="15" width="10.0023" height="10.0023" fill="#CF00CF"/>
<rect x="1142" y="3" width="10.0023" height="10.0023" fill="#CF00CF"/>
<rect x="1154" y="63" width="10.0023" height="10.0023" fill="#CF00CF"/>
<rect x="1154" y="75" width="10.0023" height="10.0023" fill="#CF00CF"/>
<rect x="1166" y="75" width="10.0023" height="10.0023" fill="#CF00CF"/>
<rect x="1166" y="87" width="10.0023" height="10.0023" fill="#CF00CF"/>
<rect x="1166" y="99" width="10.0023" height="10.0023" fill="#CF00CF"/>
<rect x="1166" y="111" width="10.0023" height="10.0023" fill="#CF00CF"/>
<rect x="1214" y="99" width="10.0023" height="10.0023" fill="#CF00CF"/>
<rect x="1262" y="87" width="10.0023" height="10.0023" fill="#CF00CF"/>
<rect x="1274" y="123" width="10.0023" height="10.0023" fill="#CF00CF"/>
<rect x="1178" y="111" width="10.0023" height="10.0023" fill="#CF00CF"/>
<rect x="1226" y="99" width="10.0023" height="10.0023" fill="#CF00CF"/>
<rect x="1274" y="87" width="10.0023" height="10.0023" fill="#CF00CF"/>
<rect x="1286" y="123" width="10.0023" height="10.0023" fill="#CF00CF"/>
<rect x="1322" y="123" width="10.0023" height="10.0023" fill="#CF00CF"/>
<rect x="1322" y="111" width="10.0023" height="10.0023" fill="#CF00CF"/>
<rect x="1322" y="99" width="10.0023" height="10.0023" fill="#CF00CF"/>
<rect x="1334" y="99" width="10.0023" height="10.0023" fill="#CF00CF"/>
<rect x="1334" y="87" width="10.0023" height="10.0023" fill="#CF00CF"/>
<rect x="1334" y="75" width="10.0023" height="10.0023" fill="#CF00CF"/>
<rect x="1358" y="75" width="10.0023" height="10.0023" fill="#CF00CF"/>
<rect x="1382" y="87" width="10.0023" height="10.0023" fill="#CF00CF"/>
<rect x="1334" y="63" width="10.0023" height="10.0023" fill="#CF00CF"/>
<rect x="1358" y="63" width="10.0023" height="10.0023" fill="#CF00CF"/>
<rect x="1226" y="87" width="10.0023" height="10.0023" fill="#CF00CF"/>
<rect x="1226" y="75" width="10.0023" height="10.0023" fill="#CF00CF"/>
<rect x="1226" y="63" width="10.0023" height="10.0023" fill="#CF00CF"/>
<rect x="1238" y="63" width="10.0023" height="10.0023" fill="#CF00CF"/>
<rect x="1262" y="75" width="10.0023" height="10.0023" fill="#CF00CF"/>
<rect x="1274" y="111" width="10.0023" height="10.0023" fill="#CF00CF"/>
<rect x="1250" y="39" width="10.0023" height="10.0023" fill="#CF00CF"/>
<rect x="1250" y="15" width="10.0023" height="10.0023" fill="#CF00CF"/>
<rect x="1238" y="51" width="10.0023" height="10.0023" fill="#CF00CF"/>
<rect x="1262" y="63" width="10.0023" height="10.0023" fill="#CF00CF"/>
<rect x="1274" y="99" width="10.0023" height="10.0023" fill="#CF00CF"/>
<rect x="1250" y="27" width="10.0023" height="10.0023" fill="#CF00CF"/>
<rect x="1250" y="51" width="10.0023" height="10.0023" fill="#CF00CF"/>
<rect x="1262" y="51" width="10.0023" height="10.0023" fill="#CF00CF"/>
<rect x="1178" y="123" width="10.0023" height="10.0023" fill="#CF00CF"/>
<rect x="1190" y="123" width="10.0023" height="10.0023" fill="#CF00CF"/>
<rect x="1190" y="135" width="10.0023" height="10.0023" fill="#CF00CF"/>
<rect x="1190" y="147" width="10.0023" height="10.0023" fill="#CF00CF"/>
<rect x="1394" y="111" width="10.0023" height="10.0023" fill="#CF00CF"/>
<rect x="1202" y="147" width="10.0023" height="10.0023" fill="#CF00CF"/>
<rect x="1406" y="111" width="10.0023" height="10.0023" fill="#CF00CF"/>
<rect x="1418" y="75" width="10.0023" height="10.0023" fill="#CF00CF"/>
<rect x="1430" y="39" width="10.0023" height="10.0023" fill="#CF00CF"/>
<rect x="1430" y="63" width="10.0023" height="10.0023" fill="#CF00CF"/>
<rect x="1442" y="87" width="10.0023" height="10.0023" fill="#CF00CF"/>
<rect x="1466" y="111" width="10.0023" height="10.0023" fill="#CF00CF"/>
<rect x="1466" y="135" width="10.0023" height="10.0023" fill="#CF00CF"/>
<rect x="1466" y="159" width="10.0023" height="10.0023" fill="#CF00CF"/>
<rect x="1214" y="147" width="10.0023" height="10.0023" fill="#CF00CF"/>
<rect x="1418" y="111" width="10.0023" height="10.0023" fill="#CF00CF"/>
<rect x="1430" y="75" width="10.0023" height="10.0023" fill="#CF00CF"/>
<rect x="1454" y="99" width="10.0023" height="10.0023" fill="#CF00CF"/>
<rect x="1478" y="99" width="10.0023" height="10.0023" fill="#CF00CF"/>
<rect x="1490" y="87" width="10.0023" height="10.0023" fill="#CF00CF"/>
<rect x="1502" y="75" width="10.0023" height="10.0023" fill="#CF00CF"/>
<rect x="1514" y="63" width="10.0023" height="10.0023" fill="#CF00CF"/>
<rect x="1514" y="27" width="10.0023" height="10.0023" fill="#CF00CF"/>
<rect x="1538" y="87" width="10.0023" height="10.0023" fill="#CF00CF"/>
<rect x="1550" y="99" width="10.0023" height="10.0023" fill="#CF00CF"/>
<rect x="1574" y="63" width="10.0023" height="10.0023" fill="#CF00CF"/>
<rect x="1586" y="99" width="10.0023" height="10.0023" fill="#CF00CF"/>
<rect x="1622" y="123" width="10.0023" height="10.0023" fill="#CF00CF"/>
<rect x="1634" y="111" width="10.0023" height="10.0023" fill="#CF00CF"/>
<rect x="1622" y="159" width="10.0023" height="10.0023" fill="#CF00CF"/>
<rect x="1634" y="87" width="10.0023" height="10.0023" fill="#CF00CF"/>
<rect x="1646" y="75" width="10.0023" height="10.0023" fill="#CF00CF"/>
<rect x="1646" y="51" width="10.0023" height="10.0023" fill="#CF00CF"/>
<rect x="1646" y="27" width="10.0023" height="10.0023" fill="#CF00CF"/>
<rect x="1646" y="3" width="10.0023" height="10.0023" fill="#CF00CF"/>
<rect x="1658" y="87" width="10.0023" height="10.0023" fill="#CF00CF"/>
<rect x="1634" y="75" width="10.0023" height="10.0023" fill="#CF00CF"/>
<rect x="1658" y="75" width="10.0023" height="10.0023" fill="#CF00CF"/>
<rect x="1670" y="99" width="10.0023" height="10.0023" fill="#CF00CF"/>
<rect x="1622" y="147" width="10.0023" height="10.0023" fill="#CF00CF"/>
<rect x="1610" y="99" width="10.0023" height="10.0023" fill="#CF00CF"/>
<rect x="1550" y="123" width="10.0023" height="10.0023" fill="#CF00CF"/>
<rect x="1562" y="87" width="10.0023" height="10.0023" fill="#CF00CF"/>
<rect x="1574" y="75" width="10.0023" height="10.0023" fill="#CF00CF"/>
<rect x="1586" y="111" width="10.0023" height="10.0023" fill="#CF00CF"/>
<rect x="1598" y="99" width="10.0023" height="10.0023" fill="#CF00CF"/>
<rect x="1526" y="75" width="10.0023" height="10.0023" fill="#CF00CF"/>
<rect x="1442" y="99" width="10.0023" height="10.0023" fill="#CF00CF"/>
<rect x="1442" y="75" width="10.0023" height="10.0023" fill="#CF00CF"/>
<rect x="1466" y="99" width="10.0023" height="10.0023" fill="#CF00CF"/>
<rect x="1490" y="99" width="10.0023" height="10.0023" fill="#CF00CF"/>
<rect x="1502" y="87" width="10.0023" height="10.0023" fill="#CF00CF"/>
<rect x="1514" y="75" width="10.0023" height="10.0023" fill="#CF00CF"/>
<rect x="1514" y="39" width="10.0023" height="10.0023" fill="#CF00CF"/>
<rect x="1538" y="99" width="10.0023" height="10.0023" fill="#CF00CF"/>
<rect x="1586" y="87" width="10.0023" height="10.0023" fill="#CF00CF"/>
<rect x="1622" y="135" width="10.0023" height="10.0023" fill="#CF00CF"/>
<rect x="1634" y="123" width="10.0023" height="10.0023" fill="#CF00CF"/>
<rect x="1622" y="171" width="10.0023" height="10.0023" fill="#CF00CF"/>
<rect x="1634" y="99" width="10.0023" height="10.0023" fill="#CF00CF"/>
<rect x="1646" y="63" width="10.0023" height="10.0023" fill="#CF00CF"/>
<rect x="1646" y="39" width="10.0023" height="10.0023" fill="#CF00CF"/>
<rect x="1646" y="15" width="10.0023" height="10.0023" fill="#CF00CF"/>
<rect x="1658" y="99" width="10.0023" height="10.0023" fill="#CF00CF"/>
<rect x="1550" y="111" width="10.0023" height="10.0023" fill="#CF00CF"/>
<rect x="1550" y="135" width="10.0023" height="10.0023" fill="#CF00CF"/>
<rect x="1562" y="99" width="10.0023" height="10.0023" fill="#CF00CF"/>
<rect x="1574" y="87" width="10.0023" height="10.0023" fill="#CF00CF"/>
<rect x="1610" y="111" width="10.0023" height="10.0023" fill="#CF00CF"/>
<rect x="1610" y="123" width="10.0023" height="10.0023" fill="#CF00CF"/>
<rect x="1526" y="87" width="10.0023" height="10.0023" fill="#CF00CF"/>
<rect x="1514" y="51" width="10.0023" height="10.0023" fill="#CF00CF"/>
<rect x="1514" y="15" width="10.0023" height="10.0023" fill="#CF00CF"/>
<rect x="1514" y="3" width="10.0023" height="10.0023" fill="#CF00CF"/>
<rect x="1466" y="123" width="10.0023" height="10.0023" fill="#CF00CF"/>
<rect x="1466" y="147" width="10.0023" height="10.0023" fill="#CF00CF"/>
<rect x="1202" y="171" width="10.0023" height="10.0023" fill="#CF00CF"/>
<rect x="1406" y="135" width="10.0023" height="10.0023" fill="#CF00CF"/>
<rect x="1418" y="99" width="10.0023" height="10.0023" fill="#CF00CF"/>
<rect x="1214" y="135" width="10.0023" height="10.0023" fill="#CF00CF"/>
<rect x="1202" y="159" width="10.0023" height="10.0023" fill="#CF00CF"/>
<rect x="1406" y="123" width="10.0023" height="10.0023" fill="#CF00CF"/>
<rect x="1418" y="87" width="10.0023" height="10.0023" fill="#CF00CF"/>
<rect x="1430" y="51" width="10.0023" height="10.0023" fill="#CF00CF"/>
<rect x="1214" y="123" width="10.0023" height="10.0023" fill="#CF00CF"/>
<rect x="1214" y="111" width="10.0023" height="10.0023" fill="#CF00CF"/>
<rect x="1202" y="183" width="10.0023" height="10.0023" fill="#CF00CF"/>
<rect x="1406" y="147" width="10.0023" height="10.0023" fill="#CF00CF"/>
<rect x="1142" y="27" width="10.0023" height="10.0023" fill="#CF00CF"/>
<rect x="877.996" y="135" width="10.0023" height="10.0023" fill="#CF00CF"/>
<rect x="890.006" y="110.977" width="10.0023" height="10.0023" fill="#CF00CF"/>
<rect x="890" y="99" width="10.0023" height="10.0023" fill="#CF00CF"/>
<rect x="914" y="99" width="10.0023" height="10.0023" fill="#CF00CF"/>
<rect x="866" y="122.984" width="10.0023" height="10.0023" fill="#CF00CF"/>
<rect x="842" y="123" width="10.0023" height="10.0023" fill="#CF00CF"/>
<rect x="842" y="111" width="10.0023" height="10.0023" fill="#CF00CF"/>
<rect x="842" y="99" width="10.0023" height="10.0023" fill="#CF00CF"/>
<rect x="914" y="87" width="10.0023" height="10.0023" fill="#CF00CF"/>
<rect x="877.996" y="147" width="10.0023" height="10.0023" fill="#CF00CF"/>
<rect x="890.006" y="122.984" width="10.0023" height="10.0023" fill="#CF00CF"/>
<rect x="914" y="63" width="10.0023" height="10.0023" fill="#CF00CF"/>
<rect x="938" y="63" width="10.0023" height="10.0023" fill="#CF00CF"/>
<rect x="938" y="51" width="10.0023" height="10.0023" fill="#CF00CF"/>
<rect x="1358" y="51" width="10.0023" height="10.0023" fill="#CF00CF"/>
<rect x="1370" y="87" width="10.0023" height="10.0023" fill="#CF00CF"/>
<rect x="1394" y="99" width="10.0023" height="10.0023" fill="#CF00CF"/>
<rect x="1286" y="135" width="10.0023" height="10.0023" fill="#CF00CF"/>
<rect x="1310" y="123" width="10.0023" height="10.0023" fill="#CF00CF"/>
<rect x="914" y="51" width="10.0023" height="10.0023" fill="#CF00CF"/>
<rect x="1334" y="51" width="10.0023" height="10.0023" fill="#CF00CF"/>
<rect x="1310" y="135.008" width="10.0023" height="10.0023" fill="#CF00CF"/>
<rect x="938" y="75" width="10.0023" height="10.0023" fill="#CF00CF"/>
<rect x="926" y="51" width="10.0023" height="10.0023" fill="#CF00CF"/>
<rect x="1346" y="51" width="10.0023" height="10.0023" fill="#CF00CF"/>
<rect x="1370" y="75" width="10.0023" height="10.0023" fill="#CF00CF"/>
<rect x="1394" y="87" width="10.0023" height="10.0023" fill="#CF00CF"/>
<rect x="1298" y="135" width="10.0023" height="10.0023" fill="#CF00CF"/>
<rect x="914" y="75" width="10.0023" height="10.0023" fill="#CF00CF"/>
<rect x="866" y="135" width="10.0023" height="10.0023" fill="#CF00CF"/>
<rect x="877.996" y="159" width="10.0023" height="10.0023" fill="#CF00CF"/>
<rect x="878" y="171" width="10.0023" height="10.0023" fill="#CF00CF"/>
<rect x="878" y="183" width="10.0023" height="10.0023" fill="#CF00CF"/>
<rect x="890.006" y="135" width="10.0023" height="10.0023" fill="#CF00CF"/>
<rect x="902" y="99" width="10.0023" height="10.0023" fill="#CF00CF"/>
<rect width="840" height="195" fill="#510051"/>
<rect x="14" y="123" width="10.0023" height="10.0023" fill="#CF00CF"/>
<rect x="98" y="99.0078" width="10.0023" height="10.0023" fill="#CF00CF"/>
<rect x="98" y="87" width="10.0023" height="10.0023" fill="#CF00CF"/>
<rect x="86" y="39" width="10.0023" height="10.0023" fill="#CF00CF"/>
<rect x="506" y="39" width="10.0023" height="10.0023" fill="#CF00CF"/>
<rect x="458" y="147" width="10.0023" height="10.0023" fill="#CF00CF"/>
<rect x="86" y="27" width="10.0023" height="10.0023" fill="#CF00CF"/>
<rect x="506" y="27" width="10.0023" height="10.0023" fill="#CF00CF"/>
<rect x="457.998" y="159" width="10.0023" height="10.0023" fill="#CF00CF"/>
<rect x="86" y="15" width="10.0023" height="10.0023" fill="#CF00CF"/>
<rect x="506" y="15" width="10.0023" height="10.0023" fill="#CF00CF"/>
<rect x="457.996" y="171" width="10.0023" height="10.0023" fill="#CF00CF"/>
<rect x="86" y="3" width="10.0023" height="10.0023" fill="#CF00CF"/>
<rect x="506" y="3" width="10.0023" height="10.0023" fill="#CF00CF"/>
<rect x="457.994" y="183" width="10.0023" height="10.0023" fill="#CF00CF"/>
<rect x="98" y="111" width="10.0023" height="10.0023" fill="#CF00CF"/>
<rect x="98" y="123" width="10.0023" height="10.0023" fill="#CF00CF"/>
<rect x="110" y="123" width="10.0023" height="10.0023" fill="#CF00CF"/>
<rect x="122" y="123" width="10.0023" height="10.0023" fill="#CF00CF"/>
<rect x="122" y="135" width="10.0023" height="10.0023" fill="#CF00CF"/>
<rect x="122" y="147" width="10.0023" height="10.0023" fill="#CF00CF"/>
<rect x="134" y="147" width="10.0023" height="10.0023" fill="#CF00CF"/>
<rect x="134" y="159" width="10.0023" height="10.0023" fill="#CF00CF"/>
<rect x="134" y="171" width="10.0023" height="10.0023" fill="#CF00CF"/>
<rect x="146" y="147" width="10.0023" height="10.0023" fill="#CF00CF"/>
<rect x="146" y="135" width="10.0023" height="10.0023" fill="#CF00CF"/>
<rect x="158" y="135" width="10.0023" height="10.0023" fill="#CF00CF"/>
<rect x="158" y="123" width="10.0023" height="10.0023" fill="#CF00CF"/>
<rect x="158" y="111" width="10.0023" height="10.0023" fill="#CF00CF"/>
<rect x="158" y="99" width="10.0023" height="10.0023" fill="#CF00CF"/>
<rect x="170" y="99" width="10.0023" height="10.0023" fill="#CF00CF"/>
<rect x="170" y="87" width="10.0023" height="10.0023" fill="#CF00CF"/>
<rect x="170" y="75" width="10.0023" height="10.0023" fill="#CF00CF"/>
<rect x="182" y="75" width="10.0023" height="10.0023" fill="#CF00CF"/>
<rect x="182" y="63" width="10.0023" height="10.0023" fill="#CF00CF"/>
<rect x="182" y="51" width="10.0023" height="10.0023" fill="#CF00CF"/>
<rect x="194" y="75" width="10.0023" height="10.0023" fill="#CF00CF"/>
<rect x="194" y="87" width="10.0023" height="10.0023" fill="#CF00CF"/>
<rect x="206" y="87" width="10.0023" height="10.0023" fill="#CF00CF"/>
<rect x="206" y="99" width="10.0023" height="10.0023" fill="#CF00CF"/>
<rect x="206" y="111" width="10.0023" height="10.0023" fill="#CF00CF"/>
<rect x="206" y="123" width="10.0023" height="10.0023" fill="#CF00CF"/>
<rect x="218" y="87" width="10.0023" height="10.0023" fill="#CF00CF"/>
<rect x="230" y="87" width="10.0023" height="10.0023" fill="#CF00CF"/>
<rect x="230" y="99" width="10.0023" height="10.0023" fill="#CF00CF"/>
<rect x="254" y="111" width="10.0023" height="10.0023" fill="#CF00CF"/>
<rect x="242" y="99" width="10.0023" height="10.0023" fill="#CF00CF"/>
<rect x="242" y="111" width="10.0023" height="10.0023" fill="#CF00CF"/>
<rect x="266" y="99" width="10.0023" height="10.0023" fill="#CF00CF"/>
<rect x="266" y="111" width="10.0023" height="10.0023" fill="#CF00CF"/>
<rect x="254" y="123" width="10.0023" height="10.0023" fill="#CF00CF"/>
<rect x="254" y="135" width="10.0023" height="10.0023" fill="#CF00CF"/>
<rect x="254" y="147" width="10.0023" height="10.0023" fill="#CF00CF"/>
<rect x="254" y="159" width="10.0023" height="10.0023" fill="#CF00CF"/>
<rect x="278" y="99" width="10.0023" height="10.0023" fill="#CF00CF"/>
<rect x="290" y="99" width="10.0023" height="10.0023" fill="#CF00CF"/>
<rect x="290" y="87" width="10.0023" height="10.0023" fill="#CF00CF"/>
<rect x="290" y="75" width="10.0023" height="10.0023" fill="#CF00CF"/>
<rect x="290" y="63" width="10.0023" height="10.0023" fill="#CF00CF"/>
<rect x="302" y="63" width="10.0023" height="10.0023" fill="#CF00CF"/>
<rect x="302" y="51" width="10.0023" height="10.0023" fill="#CF00CF"/>
<rect x="302" y="39" width="10.0023" height="10.0023" fill="#CF00CF"/>
<rect x="182" y="39" width="10.0023" height="10.0023" fill="#CF00CF"/>
<rect x="182" y="27" width="10.0023" height="10.0023" fill="#CF00CF"/>
<rect x="302" y="15" width="10.0023" height="10.0023" fill="#CF00CF"/>
<rect x="302" y="3" width="10.0023" height="10.0023" fill="#CF00CF"/>
<rect x="314" y="63" width="10.0023" height="10.0023" fill="#CF00CF"/>
<rect x="314" y="75" width="10.0023" height="10.0023" fill="#CF00CF"/>
<rect x="326" y="75" width="10.0023" height="10.0023" fill="#CF00CF"/>
<rect x="326" y="87" width="10.0023" height="10.0023" fill="#CF00CF"/>
<rect x="326" y="99" width="10.0023" height="10.0023" fill="#CF00CF"/>
<rect x="326" y="111" width="10.0023" height="10.0023" fill="#CF00CF"/>
<rect x="374" y="99" width="10.0023" height="10.0023" fill="#CF00CF"/>
<rect x="422" y="87" width="10.0023" height="10.0023" fill="#CF00CF"/>
<rect x="434" y="123" width="10.0023" height="10.0023" fill="#CF00CF"/>
<rect x="338" y="111" width="10.0023" height="10.0023" fill="#CF00CF"/>
<rect x="386" y="99" width="10.0023" height="10.0023" fill="#CF00CF"/>
<rect x="434" y="87" width="10.0023" height="10.0023" fill="#CF00CF"/>
<rect x="446" y="123" width="10.0023" height="10.0023" fill="#CF00CF"/>
<rect x="482" y="123" width="10.0023" height="10.0023" fill="#CF00CF"/>
<rect x="482" y="111" width="10.0023" height="10.0023" fill="#CF00CF"/>
<rect x="482" y="99" width="10.0023" height="10.0023" fill="#CF00CF"/>
<rect x="494" y="99" width="10.0023" height="10.0023" fill="#CF00CF"/>
<rect x="494" y="87" width="10.0023" height="10.0023" fill="#CF00CF"/>
<rect x="494" y="75" width="10.0023" height="10.0023" fill="#CF00CF"/>
<rect x="518" y="75" width="10.0023" height="10.0023" fill="#CF00CF"/>
<rect x="542" y="87" width="10.0023" height="10.0023" fill="#CF00CF"/>
<rect x="494" y="63" width="10.0023" height="10.0023" fill="#CF00CF"/>
<rect x="518" y="63" width="10.0023" height="10.0023" fill="#CF00CF"/>
<rect x="386" y="87" width="10.0023" height="10.0023" fill="#CF00CF"/>
<rect x="386" y="75" width="10.0023" height="10.0023" fill="#CF00CF"/>
<rect x="386" y="63" width="10.0023" height="10.0023" fill="#CF00CF"/>
<rect x="398" y="63" width="10.0023" height="10.0023" fill="#CF00CF"/>
<rect x="422" y="75" width="10.0023" height="10.0023" fill="#CF00CF"/>
<rect x="434" y="111" width="10.0023" height="10.0023" fill="#CF00CF"/>
<rect x="410" y="39" width="10.0023" height="10.0023" fill="#CF00CF"/>
<rect x="410" y="15" width="10.0023" height="10.0023" fill="#CF00CF"/>
<rect x="398" y="51" width="10.0023" height="10.0023" fill="#CF00CF"/>
<rect x="422" y="63" width="10.0023" height="10.0023" fill="#CF00CF"/>
<rect x="434" y="99" width="10.0023" height="10.0023" fill="#CF00CF"/>
<rect x="410" y="27" width="10.0023" height="10.0023" fill="#CF00CF"/>
<rect x="410" y="51" width="10.0023" height="10.0023" fill="#CF00CF"/>
<rect x="422" y="51" width="10.0023" height="10.0023" fill="#CF00CF"/>
<rect x="338" y="123" width="10.0023" height="10.0023" fill="#CF00CF"/>
<rect x="350" y="123" width="10.0023" height="10.0023" fill="#CF00CF"/>
<rect x="350" y="135" width="10.0023" height="10.0023" fill="#CF00CF"/>
<rect x="350" y="147" width="10.0023" height="10.0023" fill="#CF00CF"/>
<rect x="554" y="111" width="10.0023" height="10.0023" fill="#CF00CF"/>
<rect x="362" y="147" width="10.0023" height="10.0023" fill="#CF00CF"/>
<rect x="566" y="111" width="10.0023" height="10.0023" fill="#CF00CF"/>
<rect x="578" y="75" width="10.0023" height="10.0023" fill="#CF00CF"/>
<rect x="590" y="39" width="10.0023" height="10.0023" fill="#CF00CF"/>
<rect x="590" y="63" width="10.0023" height="10.0023" fill="#CF00CF"/>
<rect x="602" y="87" width="10.0023" height="10.0023" fill="#CF00CF"/>
<rect x="626" y="111" width="10.0023" height="10.0023" fill="#CF00CF"/>
<rect x="626" y="135" width="10.0023" height="10.0023" fill="#CF00CF"/>
<rect x="626" y="159" width="10.0023" height="10.0023" fill="#CF00CF"/>
<rect x="374" y="147" width="10.0023" height="10.0023" fill="#CF00CF"/>
<rect x="578" y="111" width="10.0023" height="10.0023" fill="#CF00CF"/>
<rect x="590" y="75" width="10.0023" height="10.0023" fill="#CF00CF"/>
<rect x="614" y="99" width="10.0023" height="10.0023" fill="#CF00CF"/>
<rect x="638" y="99" width="10.0023" height="10.0023" fill="#CF00CF"/>
<rect x="650" y="87" width="10.0023" height="10.0023" fill="#CF00CF"/>
<rect x="662" y="75" width="10.0023" height="10.0023" fill="#CF00CF"/>
<rect x="674" y="63" width="10.0023" height="10.0023" fill="#CF00CF"/>
<rect x="674" y="27" width="10.0023" height="10.0023" fill="#CF00CF"/>
<rect x="698" y="87" width="10.0023" height="10.0023" fill="#CF00CF"/>
<rect x="710" y="99" width="10.0023" height="10.0023" fill="#CF00CF"/>
<rect x="734" y="63" width="10.0023" height="10.0023" fill="#CF00CF"/>
<rect x="746" y="99" width="10.0023" height="10.0023" fill="#CF00CF"/>
<rect x="782" y="123" width="10.0023" height="10.0023" fill="#CF00CF"/>
<rect x="794" y="111" width="10.0023" height="10.0023" fill="#CF00CF"/>
<rect x="782" y="159" width="10.0023" height="10.0023" fill="#CF00CF"/>
<rect x="794" y="87" width="10.0023" height="10.0023" fill="#CF00CF"/>
<rect x="806" y="75" width="10.0023" height="10.0023" fill="#CF00CF"/>
<rect x="806" y="51" width="10.0023" height="10.0023" fill="#CF00CF"/>
<rect x="806" y="27" width="10.0023" height="10.0023" fill="#CF00CF"/>
<rect x="806" y="3" width="10.0023" height="10.0023" fill="#CF00CF"/>
<rect x="818" y="87" width="10.0023" height="10.0023" fill="#CF00CF"/>
<rect x="794" y="75" width="10.0023" height="10.0023" fill="#CF00CF"/>
<rect x="818" y="75" width="10.0023" height="10.0023" fill="#CF00CF"/>
<rect x="830" y="99" width="10.0023" height="10.0023" fill="#CF00CF"/>
<rect x="782" y="147" width="10.0023" height="10.0023" fill="#CF00CF"/>
<rect x="770" y="99" width="10.0023" height="10.0023" fill="#CF00CF"/>
<rect x="710" y="123" width="10.0023" height="10.0023" fill="#CF00CF"/>
<rect x="722" y="87" width="10.0023" height="10.0023" fill="#CF00CF"/>
<rect x="734" y="75" width="10.0023" height="10.0023" fill="#CF00CF"/>
<rect x="746" y="111" width="10.0023" height="10.0023" fill="#CF00CF"/>
<rect x="758" y="99" width="10.0023" height="10.0023" fill="#CF00CF"/>
<rect x="686" y="75" width="10.0023" height="10.0023" fill="#CF00CF"/>
<rect x="602" y="99" width="10.0023" height="10.0023" fill="#CF00CF"/>
<rect x="602" y="75" width="10.0023" height="10.0023" fill="#CF00CF"/>
<rect x="626" y="99" width="10.0023" height="10.0023" fill="#CF00CF"/>
<rect x="650" y="99" width="10.0023" height="10.0023" fill="#CF00CF"/>
<rect x="662" y="87" width="10.0023" height="10.0023" fill="#CF00CF"/>
<rect x="674" y="75" width="10.0023" height="10.0023" fill="#CF00CF"/>
<rect x="674" y="39" width="10.0023" height="10.0023" fill="#CF00CF"/>
<rect x="698" y="99" width="10.0023" height="10.0023" fill="#CF00CF"/>
<rect x="746" y="87" width="10.0023" height="10.0023" fill="#CF00CF"/>
<rect x="782" y="135" width="10.0023" height="10.0023" fill="#CF00CF"/>
<rect x="794" y="123" width="10.0023" height="10.0023" fill="#CF00CF"/>
<rect x="782" y="171" width="10.0023" height="10.0023" fill="#CF00CF"/>
<rect x="794" y="99" width="10.0023" height="10.0023" fill="#CF00CF"/>
<rect x="806" y="63" width="10.0023" height="10.0023" fill="#CF00CF"/>
<rect x="806" y="39" width="10.0023" height="10.0023" fill="#CF00CF"/>
<rect x="806" y="15" width="10.0023" height="10.0023" fill="#CF00CF"/>
<rect x="818" y="99" width="10.0023" height="10.0023" fill="#CF00CF"/>
<rect x="710" y="111" width="10.0023" height="10.0023" fill="#CF00CF"/>
<rect x="710" y="135" width="10.0023" height="10.0023" fill="#CF00CF"/>
<rect x="722" y="99" width="10.0023" height="10.0023" fill="#CF00CF"/>
<rect x="734" y="87" width="10.0023" height="10.0023" fill="#CF00CF"/>
<rect x="770" y="111" width="10.0023" height="10.0023" fill="#CF00CF"/>
<rect x="770" y="123" width="10.0023" height="10.0023" fill="#CF00CF"/>
<rect x="686" y="87" width="10.0023" height="10.0023" fill="#CF00CF"/>
<rect x="674" y="51" width="10.0023" height="10.0023" fill="#CF00CF"/>
<rect x="674" y="15" width="10.0023" height="10.0023" fill="#CF00CF"/>
<rect x="674" y="3" width="10.0023" height="10.0023" fill="#CF00CF"/>
<rect x="626" y="123" width="10.0023" height="10.0023" fill="#CF00CF"/>
<rect x="626" y="147" width="10.0023" height="10.0023" fill="#CF00CF"/>
<rect x="362" y="171" width="10.0023" height="10.0023" fill="#CF00CF"/>
<rect x="566" y="135" width="10.0023" height="10.0023" fill="#CF00CF"/>
<rect x="578" y="99" width="10.0023" height="10.0023" fill="#CF00CF"/>
<rect x="374" y="135" width="10.0023" height="10.0023" fill="#CF00CF"/>
<rect x="362" y="159" width="10.0023" height="10.0023" fill="#CF00CF"/>
<rect x="566" y="123" width="10.0023" height="10.0023" fill="#CF00CF"/>
<rect x="578" y="87" width="10.0023" height="10.0023" fill="#CF00CF"/>
<rect x="590" y="51" width="10.0023" height="10.0023" fill="#CF00CF"/>
<rect x="374" y="123" width="10.0023" height="10.0023" fill="#CF00CF"/>
<rect x="374" y="111" width="10.0023" height="10.0023" fill="#CF00CF"/>
<rect x="362" y="183" width="10.0023" height="10.0023" fill="#CF00CF"/>
<rect x="566" y="147" width="10.0023" height="10.0023" fill="#CF00CF"/>
<rect x="302" y="27" width="10.0023" height="10.0023" fill="#CF00CF"/>
<rect x="37.9961" y="135" width="10.0023" height="10.0023" fill="#CF00CF"/>
<rect x="50.0059" y="110.977" width="10.0023" height="10.0023" fill="#CF00CF"/>
<rect x="50" y="99" width="10.0023" height="10.0023" fill="#CF00CF"/>
<rect x="74" y="99" width="10.0023" height="10.0023" fill="#CF00CF"/>
<rect x="26" y="122.984" width="10.0023" height="10.0023" fill="#CF00CF"/>
<rect x="2" y="123" width="10.0023" height="10.0023" fill="#CF00CF"/>
<rect x="2" y="111" width="10.0023" height="10.0023" fill="#CF00CF"/>
<rect x="2" y="99" width="10.0023" height="10.0023" fill="#CF00CF"/>
<rect x="74" y="87" width="10.0023" height="10.0023" fill="#CF00CF"/>
<rect x="37.9961" y="147" width="10.0023" height="10.0023" fill="#CF00CF"/>
<rect x="50.0059" y="122.984" width="10.0023" height="10.0023" fill="#CF00CF"/>
<rect x="74" y="63" width="10.0023" height="10.0023" fill="#CF00CF"/>
<rect x="98" y="63" width="10.0023" height="10.0023" fill="#CF00CF"/>
<rect x="98" y="51" width="10.0023" height="10.0023" fill="#CF00CF"/>
<rect x="518" y="51" width="10.0023" height="10.0023" fill="#CF00CF"/>
<rect x="530" y="87" width="10.0023" height="10.0023" fill="#CF00CF"/>
<rect x="554" y="99" width="10.0023" height="10.0023" fill="#CF00CF"/>
<rect x="446" y="135" width="10.0023" height="10.0023" fill="#CF00CF"/>
<rect x="470" y="123" width="10.0023" height="10.0023" fill="#CF00CF"/>
<rect x="74" y="51" width="10.0023" height="10.0023" fill="#CF00CF"/>
<rect x="494" y="51" width="10.0023" height="10.0023" fill="#CF00CF"/>
<rect x="470" y="135.008" width="10.0023" height="10.0023" fill="#CF00CF"/>
<rect x="98" y="75" width="10.0023" height="10.0023" fill="#CF00CF"/>
<rect x="86" y="51" width="10.0023" height="10.0023" fill="#CF00CF"/>
<rect x="506" y="51" width="10.0023" height="10.0023" fill="#CF00CF"/>
<rect x="530" y="75" width="10.0023" height="10.0023" fill="#CF00CF"/>
<rect x="554" y="87" width="10.0023" height="10.0023" fill="#CF00CF"/>
<rect x="458" y="135" width="10.0023" height="10.0023" fill="#CF00CF"/>
<rect x="74" y="75" width="10.0023" height="10.0023" fill="#CF00CF"/>
<rect x="26" y="135" width="10.0023" height="10.0023" fill="#CF00CF"/>
<rect x="37.9961" y="159" width="10.0023" height="10.0023" fill="#CF00CF"/>
<rect x="38" y="171" width="10.0023" height="10.0023" fill="#CF00CF"/>
<rect x="38" y="183" width="10.0023" height="10.0023" fill="#CF00CF"/>
<rect x="50.0059" y="135" width="10.0023" height="10.0023" fill="#CF00CF"/>
<rect x="62" y="99" width="10.0023" height="10.0023" fill="#CF00CF"/>
</svg>
