<?xml version="1.0" standalone="no"?>
<!DOCTYPE svg PUBLIC "-//W3C//DTD SVG 20010904//EN"
 "http://www.w3.org/TR/2001/REC-SVG-20010904/DTD/svg10.dtd">
<svg version="1.0" xmlns="http://www.w3.org/2000/svg"
 width="2000.000000pt" height="2000.000000pt" viewBox="0 0 2000.000000 2000.000000"
 preserveAspectRatio="xMidYMid meet">

<g transform="translate(0.000000,2000.000000) scale(0.100000,-0.100000)"
fill="#000000" stroke="none">
<path d="M0 10000 l0 -10000 10000 0 10000 0 0 10000 0 10000 -10000 0 -10000
0 0 -10000z m10200 8610 l0 -70 130 0 130 0 0 -65 0 -65 70 0 70 0 0 -65 0
-65 65 0 65 0 0 -200 0 -200 65 0 65 0 0 -1790 0 -1790 65 0 65 0 0 -130 0
-130 -65 0 -65 0 0 -65 0 -65 65 0 65 0 0 -200 0 -200 -65 0 -65 0 0 -530 0
-530 -65 0 -65 0 0 -130 0 -130 -65 0 -65 0 0 -70 0 -70 -135 0 -135 0 0 -65
0 -65 -65 0 -65 0 0 65 0 65 -135 0 -135 0 0 70 0 70 -65 0 -65 0 0 130 0 130
65 0 65 0 0 65 0 65 -130 0 -130 0 0 265 0 265 -65 0 -65 0 0 330 0 330 195 0
195 0 0 70 0 70 -65 0 -65 0 0 65 0 65 -65 0 -65 0 0 -65 0 -65 -65 0 -65 0 0
660 0 660 -70 0 -70 0 0 595 0 595 -65 0 -65 0 0 795 0 795 65 0 65 0 0 135 0
135 70 0 70 0 0 65 0 65 65 0 65 0 0 65 0 65 200 0 200 0 0 70 0 70 65 0 65 0
0 -70z m1990 -925 l0 -65 65 0 65 0 0 -70 0 -70 65 0 65 0 0 -130 0 -130 65 0
65 0 0 -330 0 -330 70 0 70 0 0 -995 0 -995 65 0 65 0 0 -1190 0 -1190 -65 0
-65 0 0 -400 0 -400 -70 0 -70 0 0 -65 0 -65 -65 0 -65 0 0 -65 0 -65 -65 0
-65 0 0 65 0 65 -65 0 -65 0 0 65 0 65 -200 0 -200 0 0 135 0 135 -65 0 -65 0
0 195 0 195 65 0 65 0 0 70 0 70 65 0 65 0 0 130 0 130 65 0 65 0 0 135 0 135
-195 0 -195 0 0 -70 0 -70 -70 0 -70 0 0 200 0 200 -65 0 -65 0 0 65 0 65 65
0 65 0 0 -65 0 -65 135 0 135 0 0 200 0 200 -200 0 -200 0 0 265 0 265 65 0
65 0 0 65 0 65 -65 0 -65 0 0 65 0 65 65 0 65 0 0 65 0 65 -65 0 -65 0 0 730
0 730 -65 0 -65 0 0 860 0 860 65 0 65 0 0 70 0 70 135 0 135 0 0 65 0 65 265
0 265 0 0 -65z m-4240 -270 l0 -65 130 0 130 0 0 -65 0 -65 65 0 65 0 0 -200
0 -200 70 0 70 0 0 -995 0 -995 65 0 65 0 0 -530 0 -530 65 0 65 0 0 -130 0
-130 -200 0 -200 0 0 -65 0 -65 200 0 200 0 0 -265 0 -265 65 0 65 0 0 -265 0
-265 -65 0 -65 0 0 -135 0 -135 65 0 65 0 0 -195 0 -195 -65 0 -65 0 0 -135 0
-135 -130 0 -130 0 0 -65 0 -65 -265 0 -265 0 0 65 0 65 -70 0 -70 0 0 135 0
135 -65 0 -65 0 0 130 0 130 -65 0 -65 0 0 135 0 135 130 0 130 0 0 195 0 195
-65 0 -65 0 0 -65 0 -65 -130 0 -130 0 0 135 0 135 -70 0 -70 0 0 65 0 65 70
0 70 0 0 65 0 65 195 0 195 0 0 65 0 65 -130 0 -130 0 0 70 0 70 -135 0 -135
0 0 260 0 260 -65 0 -65 0 0 530 0 530 -65 0 -65 0 0 1060 0 1060 65 0 65 0 0
135 0 135 65 0 65 0 0 65 0 65 135 0 135 0 0 65 0 65 200 0 200 0 0 -65z
m7280 -2380 l0 -65 65 0 65 0 0 -70 0 -70 70 0 70 0 0 -195 0 -195 65 0 65 0
0 -335 0 -335 -65 0 -65 0 0 -525 0 -525 -70 0 -70 0 0 -335 0 -335 -65 0 -65
0 0 -330 0 -330 -65 0 -65 0 0 -65 0 -65 -65 0 -65 0 0 65 0 65 -70 0 -70 0 0
-65 0 -65 -65 0 -65 0 0 -135 0 -135 135 0 135 0 0 70 0 70 65 0 65 0 0 -70 0
-70 -65 0 -65 0 0 -195 0 -195 -70 0 -70 0 0 -265 0 -265 -65 0 -65 0 0 -135
0 -135 -65 0 -65 0 0 -65 0 -65 -265 0 -265 0 0 65 0 65 -65 0 -65 0 0 65 0
65 -70 0 -70 0 0 70 0 70 -65 0 -65 0 0 330 0 330 65 0 65 0 0 330 0 330 70 0
70 0 0 -65 0 -65 65 0 65 0 0 65 0 65 65 0 65 0 0 65 0 65 -130 0 -130 0 0
200 0 200 65 0 65 0 0 400 0 400 65 0 65 0 0 525 0 525 65 0 65 0 0 465 0 465
70 0 70 0 0 135 0 135 65 0 65 0 0 65 0 65 330 0 330 0 0 -65z m-3570 -2650
l0 -65 -70 0 -70 0 0 65 0 65 70 0 70 0 0 -65z m-800 -1190 l0 -65 135 0 135
0 0 -70 0 -70 130 0 130 0 0 -65 0 -65 65 0 65 0 0 -65 0 -65 335 0 335 0 0
-65 0 -65 195 0 195 0 0 -70 0 -70 70 0 70 0 0 -65 0 -65 130 0 130 0 0 -65 0
-65 65 0 65 0 0 -65 0 -65 70 0 70 0 0 -70 0 -70 65 0 65 0 0 -65 0 -65 130 0
130 0 0 -65 0 -65 65 0 65 0 0 -65 0 -65 135 0 135 0 0 -70 0 -70 200 0 200 0
0 -130 0 -130 65 0 65 0 0 -65 0 -65 65 0 65 0 0 -665 0 -665 -65 0 -65 0 0
-130 0 -130 -65 0 -65 0 0 -70 0 -70 65 0 65 0 0 -725 0 -725 -65 0 -65 0 0
130 0 130 -70 0 -70 0 0 -265 0 -265 70 0 70 0 0 -330 0 -330 -70 0 -70 0 0
-65 0 -65 -65 0 -65 0 0 -65 0 -65 65 0 65 0 0 -200 0 -200 -130 0 -130 0 0
-65 0 -65 65 0 65 0 0 -200 0 -200 -65 0 -65 0 0 -200 0 -200 -65 0 -65 0 0
-200 0 -200 -70 0 -70 0 0 -130 0 -130 -65 0 -65 0 0 -135 0 -135 -65 0 -65 0
0 -130 0 -130 -65 0 -65 0 0 -65 0 -65 -65 0 -65 0 0 -70 0 -70 -135 0 -135 0
0 -130 0 -130 -65 0 -65 0 0 65 0 65 -135 0 -135 0 0 -130 0 -130 -65 0 -65 0
0 65 0 65 -330 0 -330 0 0 65 0 65 -65 0 -65 0 0 65 0 65 -70 0 -70 0 0 -65 0
-65 -65 0 -65 0 0 135 0 135 -65 0 -65 0 0 -70 0 -70 -65 0 -65 0 0 70 0 70
-70 0 -70 0 0 65 0 65 -65 0 -65 0 0 -65 0 -65 -65 0 -65 0 0 65 0 65 65 0 65
0 0 65 0 65 -65 0 -65 0 0 65 0 65 -65 0 -65 0 0 70 0 70 -70 0 -70 0 0 65 0
65 -65 0 -65 0 0 -65 0 -65 -65 0 -65 0 0 -70 0 -70 130 0 130 0 0 -65 0 -65
70 0 70 0 0 -65 0 -65 -70 0 -70 0 0 65 0 65 -130 0 -130 0 0 -65 0 -65 -65 0
-65 0 0 65 0 65 -70 0 -70 0 0 65 0 65 70 0 70 0 0 70 0 70 65 0 65 0 0 130 0
130 -65 0 -65 0 0 -65 0 -65 -70 0 -70 0 0 -65 0 -65 -65 0 -65 0 0 -70 0 -70
-65 0 -65 0 0 70 0 70 65 0 65 0 0 65 0 65 65 0 65 0 0 65 0 65 -130 0 -130 0
0 -65 0 -65 -200 0 -200 0 0 65 0 65 -200 0 -200 0 0 65 0 65 -130 0 -130 0 0
-65 0 -65 -65 0 -65 0 0 65 0 65 65 0 65 0 0 70 0 70 -135 0 -135 0 0 130 0
130 -65 0 -65 0 0 -65 0 -65 -65 0 -65 0 0 130 0 130 -65 0 -65 0 0 -65 0 -65
-70 0 -70 0 0 135 0 135 -65 0 -65 0 0 -70 0 -70 -65 0 -65 0 0 70 0 70 -65 0
-65 0 0 130 0 130 -135 0 -135 0 0 65 0 65 -65 0 -65 0 0 70 0 70 -65 0 -65 0
0 65 0 65 -70 0 -70 0 0 65 0 65 -65 0 -65 0 0 65 0 65 -65 0 -65 0 0 135 0
135 -65 0 -65 0 0 65 0 65 -65 0 -65 0 0 65 0 65 -70 0 -70 0 0 70 0 70 -65 0
-65 0 0 130 0 130 -65 0 -65 0 0 65 0 65 -65 0 -65 0 0 135 0 135 -70 0 -70 0
0 330 0 330 -65 0 -65 0 0 200 0 200 -65 0 -65 0 0 65 0 65 65 0 65 0 0 65 0
65 -65 0 -65 0 0 135 0 135 -65 0 -65 0 0 65 0 65 -70 0 -70 0 0 65 0 65 -65
0 -65 0 0 65 0 65 -130 0 -130 0 0 135 0 135 -70 0 -70 0 0 65 0 65 -65 0 -65
0 0 200 0 200 -65 0 -65 0 0 465 0 465 -65 0 -65 0 0 65 0 65 65 0 65 0 0 65
0 65 -65 0 -65 0 0 65 0 65 -70 0 -70 0 0 135 0 135 -65 0 -65 0 0 65 0 65 65
0 65 0 0 65 0 65 -65 0 -65 0 0 200 0 200 65 0 65 0 0 65 0 65 135 0 135 0 0
70 0 70 265 0 265 0 0 -70 0 -70 130 0 130 0 0 -65 0 -65 70 0 70 0 0 -65 0
-65 65 0 65 0 0 -65 0 -65 65 0 65 0 0 -70 0 -70 65 0 65 0 0 -65 0 -65 70 0
70 0 0 -130 0 -130 65 0 65 0 0 -135 0 -135 65 0 65 0 0 -200 0 -200 65 0 65
0 0 -195 0 -195 70 0 70 0 0 -335 0 -335 65 0 65 0 0 -195 0 -195 65 0 65 0 0
-265 0 -265 -130 0 -130 0 0 -70 0 -70 -200 0 -200 0 0 -65 0 -65 65 0 65 0 0
-65 0 -65 -65 0 -65 0 0 -65 0 -65 -65 0 -65 0 0 -135 0 -135 65 0 65 0 0 65
0 65 130 0 130 0 0 70 0 70 135 0 135 0 0 65 0 65 130 0 130 0 0 -65 0 -65 65
0 65 0 0 130 0 130 70 0 70 0 0 65 0 65 65 0 65 0 0 70 0 70 130 0 130 0 0
130 0 130 70 0 70 0 0 135 0 135 65 0 65 0 0 65 0 65 65 0 65 0 0 65 0 65 -65
0 -65 0 0 65 0 65 65 0 65 0 0 70 0 70 65 0 65 0 0 65 0 65 -65 0 -65 0 0 65
0 65 330 0 330 0 0 -65 0 -65 70 0 70 0 0 -65 0 -65 -70 0 -70 0 0 65 0 65
-65 0 -65 0 0 -135 0 -135 65 0 65 0 0 -65 0 -65 70 0 70 0 0 65 0 65 65 0 65
0 0 70 0 70 130 0 130 0 0 -70 0 -70 70 0 70 0 0 -65 0 -65 65 0 65 0 0 -65 0
-65 265 0 265 0 0 65 0 65 -65 0 -65 0 0 135 0 135 -70 0 -70 0 0 -70 0 -70
-65 0 -65 0 0 70 0 70 -65 0 -65 0 0 65 0 65 -200 0 -200 0 0 65 0 65 -130 0
-130 0 0 65 0 65 65 0 65 0 0 70 0 70 -135 0 -135 0 0 -70 0 -70 -130 0 -130
0 0 70 0 70 -65 0 -65 0 0 65 0 65 65 0 65 0 0 65 0 65 -65 0 -65 0 0 200 0
200 -70 0 -70 0 0 265 0 265 70 0 70 0 0 200 0 200 65 0 65 0 0 65 0 65 65 0
65 0 0 65 0 65 135 0 135 0 0 65 0 65 65 0 65 0 0 -65 0 -65 65 0 65 0 0 65 0
65 135 0 135 0 0 70 0 70 195 0 195 0 0 -70 0 -70 70 0 70 0 0 70 0 70 195 0
195 0 0 65 0 65 465 0 465 0 0 -65z m-1720 -8610 l0 -65 -65 0 -65 0 0 65 0
65 65 0 65 0 0 -65z m400 -135 l0 -70 -135 0 -135 0 0 70 0 70 135 0 135 0 0
-70z"/>
<path d="M9930 17550 l0 -70 70 0 70 0 0 70 0 70 -70 0 -70 0 0 -70z"/>
<path d="M9800 17155 l0 -65 65 0 65 0 0 -70 0 -70 -65 0 -65 0 0 -65 0 -65
65 0 65 0 0 65 0 65 70 0 70 0 0 70 0 70 -70 0 -70 0 0 65 0 65 -65 0 -65 0 0
-65z"/>
<path d="M9930 16625 l0 -65 135 0 135 0 0 65 0 65 -135 0 -135 0 0 -65z"/>
<path d="M10600 15825 l0 -65 65 0 65 0 0 65 0 65 -65 0 -65 0 0 -65z"/>
<path d="M9930 14505 l0 -65 70 0 70 0 0 65 0 65 -70 0 -70 0 0 -65z"/>
<path d="M10600 13970 l0 -200 65 0 65 0 0 200 0 200 -65 0 -65 0 0 -200z"/>
<path d="M10200 13840 l0 -70 65 0 65 0 0 70 0 70 -65 0 -65 0 0 -70z"/>
<path d="M9800 13245 l0 -135 65 0 65 0 0 -130 0 -130 70 0 70 0 0 -65 0 -65
65 0 65 0 0 65 0 65 -65 0 -65 0 0 200 0 200 -70 0 -70 0 0 65 0 65 -65 0 -65
0 0 -135z"/>
<path d="M10330 12785 l0 -65 65 0 65 0 0 65 0 65 -65 0 -65 0 0 -65z"/>
<path d="M11790 16625 l0 -65 130 0 130 0 0 -70 0 -70 70 0 70 0 0 -130 0
-130 65 0 65 0 0 130 0 130 -65 0 -65 0 0 135 0 135 -200 0 -200 0 0 -65z"/>
<path d="M11790 16225 l0 -65 65 0 65 0 0 65 0 65 -65 0 -65 0 0 -65z"/>
<path d="M11660 15960 l0 -70 65 0 65 0 0 70 0 70 -65 0 -65 0 0 -70z"/>
<path d="M12450 14765 l0 -65 65 0 65 0 0 65 0 65 -65 0 -65 0 0 -65z"/>
<path d="M11660 14635 l0 -65 130 0 130 0 0 65 0 65 -130 0 -130 0 0 -65z"/>
<path d="M11920 14040 l0 -130 65 0 65 0 0 130 0 130 -65 0 -65 0 0 -130z"/>
<path d="M12450 14105 l0 -65 65 0 65 0 0 65 0 65 -65 0 -65 0 0 -65z"/>
<path d="M12450 13640 l0 -130 65 0 65 0 0 130 0 130 -65 0 -65 0 0 -130z"/>
<path d="M12190 13315 l0 -65 -70 0 -70 0 0 -135 0 -135 70 0 70 0 0 135 0
135 65 0 65 0 0 65 0 65 -65 0 -65 0 0 -65z"/>
<path d="M12580 13180 l0 -200 70 0 70 0 0 200 0 200 -70 0 -70 0 0 -200z"/>
<path d="M12450 12715 l0 -135 -65 0 -65 0 0 -130 0 -130 -65 0 -65 0 0 -65 0
-65 65 0 65 0 0 65 0 65 65 0 65 0 0 130 0 130 65 0 65 0 0 135 0 135 -65 0
-65 0 0 -135z"/>
<path d="M7280 17020 l0 -70 70 0 70 0 0 70 0 70 -70 0 -70 0 0 -70z"/>
<path d="M7680 17020 l0 -70 65 0 65 0 0 70 0 70 -65 0 -65 0 0 -70z"/>
<path d="M7680 16355 l0 -65 65 0 65 0 0 65 0 65 -65 0 -65 0 0 -65z"/>
<path d="M7950 16155 l0 -265 65 0 65 0 0 265 0 265 -65 0 -65 0 0 -265z"/>
<path d="M7280 16090 l0 -200 135 0 135 0 0 -65 0 -65 65 0 65 0 0 65 0 65
-65 0 -65 0 0 70 0 70 -65 0 -65 0 0 130 0 130 -70 0 -70 0 0 -200z"/>
<path d="M7680 15565 l0 -65 65 0 65 0 0 65 0 65 -65 0 -65 0 0 -65z"/>
<path d="M8080 14370 l0 -70 65 0 65 0 0 70 0 70 -65 0 -65 0 0 -70z"/>
<path d="M7550 14105 l0 -65 65 0 65 0 0 65 0 65 -65 0 -65 0 0 -65z"/>
<path d="M8080 13905 l0 -135 65 0 65 0 0 135 0 135 -65 0 -65 0 0 -135z"/>
<path d="M7680 13705 l0 -65 65 0 65 0 0 65 0 65 -65 0 -65 0 0 -65z"/>
<path d="M7550 13315 l0 -65 65 0 65 0 0 65 0 65 -65 0 -65 0 0 -65z"/>
<path d="M7950 13180 l0 -70 65 0 65 0 0 70 0 70 -65 0 -65 0 0 -70z"/>
<path d="M8340 13180 l0 -70 70 0 70 0 0 70 0 70 -70 0 -70 0 0 -70z"/>
<path d="M8610 12785 l0 -65 65 0 65 0 0 65 0 65 -65 0 -65 0 0 -65z"/>
<path d="M8340 12585 l0 -135 70 0 70 0 0 135 0 135 -70 0 -70 0 0 -135z"/>
<path d="M14700 14635 l0 -65 65 0 65 0 0 65 0 65 -65 0 -65 0 0 -65z"/>
<path d="M14700 14305 l0 -135 65 0 65 0 0 135 0 135 -65 0 -65 0 0 -135z"/>
<path d="M14570 13575 l0 -65 65 0 65 0 0 -65 0 -65 -65 0 -65 0 0 -65 0 -65
65 0 65 0 0 65 0 65 200 0 200 0 0 65 0 65 -200 0 -200 0 0 65 0 65 -65 0 -65
0 0 -65z"/>
<path d="M15100 13180 l0 -70 65 0 65 0 0 70 0 70 -65 0 -65 0 0 -70z"/>
<path d="M15230 12785 l0 -65 65 0 65 0 0 65 0 65 -65 0 -65 0 0 -65z"/>
<path d="M14570 12515 l0 -65 65 0 65 0 0 65 0 65 -65 0 -65 0 0 -65z"/>
<path d="M14970 12515 l0 -65 65 0 65 0 0 65 0 65 -65 0 -65 0 0 -65z"/>
<path d="M14170 11725 l0 -65 65 0 65 0 0 65 0 65 -65 0 -65 0 0 -65z"/>
<path d="M14700 11655 l0 -135 65 0 65 0 0 135 0 135 -65 0 -65 0 0 -135z"/>
<path d="M14440 11195 l0 -65 65 0 65 0 0 65 0 65 -65 0 -65 0 0 -65z"/>
<path d="M13910 10925 l0 -65 65 0 65 0 0 -65 0 -65 65 0 65 0 0 65 0 65 -65
0 -65 0 0 65 0 65 -65 0 -65 0 0 -65z"/>
<path d="M14570 10795 l0 -65 -65 0 -65 0 0 -65 0 -65 65 0 65 0 0 65 0 65 65
0 65 0 0 65 0 65 -65 0 -65 0 0 -65z"/>
<path d="M14040 10530 l0 -70 130 0 130 0 0 70 0 70 -130 0 -130 0 0 -70z"/>
<path d="M10200 10795 l0 -65 130 0 130 0 0 65 0 65 -130 0 -130 0 0 -65z"/>
<path d="M4640 10530 l0 -70 65 0 65 0 0 70 0 70 -65 0 -65 0 0 -70z"/>
<path d="M4900 10530 l0 -70 65 0 65 0 0 70 0 70 -65 0 -65 0 0 -70z"/>
<path d="M8610 10465 l0 -135 65 0 65 0 0 65 0 65 65 0 65 0 0 70 0 70 -130 0
-130 0 0 -135z"/>
<path d="M10600 10530 l0 -70 65 0 65 0 0 -65 0 -65 -65 0 -65 0 0 -65 0 -65
65 0 65 0 0 -135 0 -135 -65 0 -65 0 0 -65 0 -65 65 0 65 0 0 65 0 65 65 0 65
0 0 265 0 265 -65 0 -65 0 0 70 0 70 -65 0 -65 0 0 -70z"/>
<path d="M8340 10395 l0 -65 -65 0 -65 0 0 -65 0 -65 65 0 65 0 0 -65 0 -65
-65 0 -65 0 0 -200 0 -200 65 0 65 0 0 130 0 130 70 0 70 0 0 135 0 135 -70 0
-70 0 0 65 0 65 70 0 70 0 0 65 0 65 -70 0 -70 0 0 -65z"/>
<path d="M9270 10395 l0 -65 65 0 65 0 0 65 0 65 -65 0 -65 0 0 -65z"/>
<path d="M5030 10265 l0 -65 -65 0 -65 0 0 -65 0 -65 65 0 65 0 0 65 0 65 70
0 70 0 0 65 0 65 -70 0 -70 0 0 -65z"/>
<path d="M9010 10265 l0 -65 -70 0 -70 0 0 -65 0 -65 70 0 70 0 0 -70 0 -70
-70 0 -70 0 0 -65 0 -65 135 0 135 0 0 -65 0 -65 130 0 130 0 0 -65 0 -65 -65
0 -65 0 0 -70 0 -70 65 0 65 0 0 70 0 70 70 0 70 0 0 65 0 65 -70 0 -70 0 0
65 0 65 -130 0 -130 0 0 135 0 135 -65 0 -65 0 0 65 0 65 65 0 65 0 0 65 0 65
-65 0 -65 0 0 -65z"/>
<path d="M10200 10265 l0 -65 -65 0 -65 0 0 -265 0 -265 65 0 65 0 0 265 0
265 65 0 65 0 0 65 0 65 -65 0 -65 0 0 -65z"/>
<path d="M11790 10265 l0 -65 -65 0 -65 0 0 -135 0 -135 65 0 65 0 0 70 0 70
65 0 65 0 0 130 0 130 -65 0 -65 0 0 -65z"/>
<path d="M5300 10000 l0 -70 -65 0 -65 0 0 -65 0 -65 65 0 65 0 0 -65 0 -65
65 0 65 0 0 65 0 65 65 0 65 0 0 65 0 65 -65 0 -65 0 0 70 0 70 -65 0 -65 0 0
-70z m130 -135 l0 -65 -65 0 -65 0 0 65 0 65 65 0 65 0 0 -65z"/>
<path d="M4640 9865 l0 -65 130 0 130 0 0 -65 0 -65 65 0 65 0 0 65 0 65 -65
0 -65 0 0 65 0 65 -130 0 -130 0 0 -65z"/>
<path d="M12450 9735 l0 -65 65 0 65 0 0 -65 0 -65 70 0 70 0 0 -200 0 -200
65 0 65 0 0 200 0 200 -65 0 -65 0 0 130 0 130 -135 0 -135 0 0 -65z"/>
<path d="M4640 9605 l0 -65 65 0 65 0 0 65 0 65 -65 0 -65 0 0 -65z"/>
<path d="M5560 9605 l0 -65 -65 0 -65 0 0 -70 0 -70 65 0 65 0 0 70 0 70 70 0
70 0 0 -70 0 -70 65 0 65 0 0 70 0 70 -65 0 -65 0 0 65 0 65 -70 0 -70 0 0
-65z"/>
<path d="M8480 9605 l0 -65 -70 0 -70 0 0 -70 0 -70 70 0 70 0 0 -65 0 -65 65
0 65 0 0 -65 0 -65 65 0 65 0 0 -135 0 -135 65 0 65 0 0 135 0 135 -65 0 -65
0 0 65 0 65 -65 0 -65 0 0 200 0 200 -65 0 -65 0 0 -65z"/>
<path d="M10330 9605 l0 -65 65 0 65 0 0 -135 0 -135 70 0 70 0 0 200 0 200
-135 0 -135 0 0 -65z"/>
<path d="M10860 9605 l0 -65 -65 0 -65 0 0 -70 0 -70 65 0 65 0 0 70 0 70 65
0 65 0 0 65 0 65 -65 0 -65 0 0 -65z"/>
<path d="M12050 9605 l0 -65 -65 0 -65 0 0 -135 0 -135 65 0 65 0 0 135 0 135
70 0 70 0 0 65 0 65 -70 0 -70 0 0 -65z"/>
<path d="M9930 9470 l0 -70 70 0 70 0 0 70 0 70 -70 0 -70 0 0 -70z"/>
<path d="M11390 9405 l0 -135 65 0 65 0 0 135 0 135 -65 0 -65 0 0 -135z"/>
<path d="M4770 9335 l0 -65 65 0 65 0 0 65 0 65 -65 0 -65 0 0 -65z"/>
<path d="M10200 9335 l0 -65 65 0 65 0 0 65 0 65 -65 0 -65 0 0 -65z"/>
<path d="M13110 9270 l0 -130 -65 0 -65 0 0 -65 0 -65 65 0 65 0 0 65 0 65 70
0 70 0 0 130 0 130 -70 0 -70 0 0 -130z"/>
<path d="M5030 9205 l0 -65 70 0 70 0 0 65 0 65 -70 0 -70 0 0 -65z"/>
<path d="M5430 9205 l0 -65 65 0 65 0 0 -65 0 -65 -65 0 -65 0 0 -70 0 -70 65
0 65 0 0 -65 0 -65 70 0 70 0 0 65 0 65 -70 0 -70 0 0 70 0 70 70 0 70 0 0 65
0 65 -70 0 -70 0 0 65 0 65 -65 0 -65 0 0 -65z"/>
<path d="M9800 9205 l0 -65 135 0 135 0 0 -65 0 -65 130 0 130 0 0 -70 0 -70
65 0 65 0 0 -65 0 -65 70 0 70 0 0 135 0 135 -70 0 -70 0 0 65 0 65 -195 0
-195 0 0 65 0 65 -135 0 -135 0 0 -65z"/>
<path d="M8210 9075 l0 -65 65 0 65 0 0 65 0 65 -65 0 -65 0 0 -65z"/>
<path d="M11520 9075 l0 -65 70 0 70 0 0 65 0 65 -70 0 -70 0 0 -65z"/>
<path d="M12050 8940 l0 -200 70 0 70 0 0 200 0 200 -70 0 -70 0 0 -200z"/>
<path d="M13640 9075 l0 -65 -65 0 -65 0 0 -70 0 -70 -65 0 -65 0 0 -130 0
-130 -65 0 -65 0 0 65 0 65 -70 0 -70 0 0 -65 0 -65 -65 0 -65 0 0 -65 0 -65
-65 0 -65 0 0 -70 0 -70 130 0 130 0 0 -65 0 -65 70 0 70 0 0 -65 0 -65 -70 0
-70 0 0 -65 0 -65 135 0 135 0 0 130 0 130 -65 0 -65 0 0 65 0 65 -70 0 -70 0
0 70 0 70 135 0 135 0 0 -70 0 -70 65 0 65 0 0 70 0 70 65 0 65 0 0 265 0 265
135 0 135 0 0 -70 0 -70 65 0 65 0 0 135 0 135 -200 0 -200 0 0 -65z m-130
-530 l0 -65 -65 0 -65 0 0 65 0 65 65 0 65 0 0 -65z"/>
<path d="M4900 8940 l0 -70 65 0 65 0 0 70 0 70 -65 0 -65 0 0 -70z"/>
<path d="M14170 8940 l0 -70 65 0 65 0 0 70 0 70 -65 0 -65 0 0 -70z"/>
<path d="M10730 8805 l0 -65 65 0 65 0 0 65 0 65 -65 0 -65 0 0 -65z"/>
<path d="M11660 8805 l0 -65 65 0 65 0 0 65 0 65 -65 0 -65 0 0 -65z"/>
<path d="M12320 8740 l0 -130 -65 0 -65 0 0 -65 0 -65 65 0 65 0 0 -200 0
-200 65 0 65 0 0 65 0 65 65 0 65 0 0 135 0 135 -130 0 -130 0 0 65 0 65 65 0
65 0 0 130 0 130 -65 0 -65 0 0 -130z"/>
<path d="M14440 8740 l0 -130 65 0 65 0 0 130 0 130 -65 0 -65 0 0 -130z"/>
<path d="M9140 8675 l0 -65 130 0 130 0 0 65 0 65 -130 0 -130 0 0 -65z"/>
<path d="M10990 8675 l0 -65 135 0 135 0 0 -65 0 -65 65 0 65 0 0 65 0 65 -65
0 -65 0 0 65 0 65 -135 0 -135 0 0 -65z"/>
<path d="M5700 8545 l0 -65 65 0 65 0 0 65 0 65 -65 0 -65 0 0 -65z"/>
<path d="M5960 8410 l0 -70 -65 0 -65 0 0 -65 0 -65 65 0 65 0 0 65 0 65 65 0
65 0 0 70 0 70 -65 0 -65 0 0 -70z"/>
<path d="M11660 8410 l0 -70 65 0 65 0 0 70 0 70 -65 0 -65 0 0 -70z"/>
<path d="M14440 8410 l0 -70 65 0 65 0 0 70 0 70 -65 0 -65 0 0 -70z"/>
<path d="M11920 8275 l0 -65 135 0 135 0 0 65 0 65 -135 0 -135 0 0 -65z"/>
<path d="M5430 8145 l0 -65 65 0 65 0 0 65 0 65 -65 0 -65 0 0 -65z"/>
<path d="M14440 8145 l0 -65 65 0 65 0 0 65 0 65 -65 0 -65 0 0 -65z"/>
<path d="M9800 8015 l0 -65 135 0 135 0 0 -70 0 -70 65 0 65 0 0 70 0 70 -65
0 -65 0 0 65 0 65 -135 0 -135 0 0 -65z"/>
<path d="M10460 8015 l0 -65 70 0 70 0 0 65 0 65 -70 0 -70 0 0 -65z"/>
<path d="M12580 8015 l0 -65 70 0 70 0 0 65 0 65 -70 0 -70 0 0 -65z"/>
<path d="M13510 8015 l0 -65 130 0 130 0 0 -70 0 -70 70 0 70 0 0 70 0 70 -70
0 -70 0 0 65 0 65 -130 0 -130 0 0 -65z"/>
<path d="M14040 8015 l0 -65 65 0 65 0 0 -70 0 -70 65 0 65 0 0 70 0 70 -65 0
-65 0 0 65 0 65 -65 0 -65 0 0 -65z"/>
<path d="M5030 7880 l0 -70 70 0 70 0 0 70 0 70 -70 0 -70 0 0 -70z"/>
<path d="M5300 7880 l0 -70 65 0 65 0 0 70 0 70 -65 0 -65 0 0 -70z"/>
<path d="M5700 7880 l0 -70 65 0 65 0 0 -65 0 -65 65 0 65 0 0 65 0 65 -65 0
-65 0 0 70 0 70 -65 0 -65 0 0 -70z"/>
<path d="M12850 7880 l0 -70 65 0 65 0 0 70 0 70 -65 0 -65 0 0 -70z"/>
<path d="M10330 7745 l0 -65 65 0 65 0 0 -65 0 -65 70 0 70 0 0 -65 0 -65 65
0 65 0 0 -70 0 -70 65 0 65 0 0 -65 0 -65 65 0 65 0 0 65 0 65 -65 0 -65 0 0
70 0 70 -65 0 -65 0 0 65 0 65 -65 0 -65 0 0 65 0 65 -70 0 -70 0 0 65 0 65
-65 0 -65 0 0 -65z"/>
<path d="M11130 7680 l0 -130 65 0 65 0 0 130 0 130 -65 0 -65 0 0 -130z"/>
<path d="M13110 7745 l0 -65 70 0 70 0 0 65 0 65 -70 0 -70 0 0 -65z"/>
<path d="M5560 7615 l0 -65 70 0 70 0 0 65 0 65 -70 0 -70 0 0 -65z"/>
<path d="M13380 7615 l0 -65 130 0 130 0 0 65 0 65 -130 0 -130 0 0 -65z"/>
<path d="M13770 7550 l0 -130 70 0 70 0 0 130 0 130 -70 0 -70 0 0 -130z"/>
<path d="M8480 7415 l0 -135 65 0 65 0 0 135 0 135 -65 0 -65 0 0 -135z"/>
<path d="M14040 7485 l0 -65 65 0 65 0 0 65 0 65 -65 0 -65 0 0 -65z"/>
<path d="M8210 7350 l0 -70 65 0 65 0 0 70 0 70 -65 0 -65 0 0 -70z"/>
<path d="M11130 7350 l0 -70 65 0 65 0 0 70 0 70 -65 0 -65 0 0 -70z"/>
<path d="M5430 7215 l0 -65 65 0 65 0 0 -130 0 -130 70 0 70 0 0 65 0 65 65 0
65 0 0 65 0 65 -135 0 -135 0 0 65 0 65 -65 0 -65 0 0 -65z"/>
<path d="M9400 7215 l0 -65 -65 0 -65 0 0 -65 0 -65 -130 0 -130 0 0 -65 0
-65 130 0 130 0 0 65 0 65 65 0 65 0 0 65 0 65 70 0 70 0 0 65 0 65 -70 0 -70
0 0 -65z"/>
<path d="M14300 7215 l0 -65 70 0 70 0 0 65 0 65 -70 0 -70 0 0 -65z"/>
<path d="M12720 7085 l0 -65 65 0 65 0 0 65 0 65 -65 0 -65 0 0 -65z"/>
<path d="M9540 6955 l0 -65 -70 0 -70 0 0 -70 0 -70 70 0 70 0 0 70 0 70 65 0
65 0 0 65 0 65 -65 0 -65 0 0 -65z"/>
<path d="M7810 6820 l0 -70 70 0 70 0 0 70 0 70 -70 0 -70 0 0 -70z"/>
<path d="M10200 6820 l0 -70 65 0 65 0 0 70 0 70 -65 0 -65 0 0 -70z"/>
<path d="M10460 6820 l0 -70 70 0 70 0 0 70 0 70 -70 0 -70 0 0 -70z"/>
<path d="M11660 6820 l0 -70 -135 0 -135 0 0 -65 0 -65 135 0 135 0 0 65 0 65
65 0 65 0 0 70 0 70 -65 0 -65 0 0 -70z"/>
<path d="M12580 6820 l0 -70 -65 0 -65 0 0 -65 0 -65 65 0 65 0 0 65 0 65 70
0 70 0 0 70 0 70 -70 0 -70 0 0 -70z"/>
<path d="M12980 6820 l0 -70 65 0 65 0 0 70 0 70 -65 0 -65 0 0 -70z"/>
<path d="M6230 6685 l0 -65 195 0 195 0 0 65 0 65 -195 0 -195 0 0 -65z"/>
<path d="M9010 6685 l0 -65 -70 0 -70 0 0 -65 0 -65 70 0 70 0 0 -65 0 -65
-70 0 -70 0 0 -65 0 -65 70 0 70 0 0 65 0 65 65 0 65 0 0 65 0 65 -65 0 -65 0
0 65 0 65 130 0 130 0 0 -65 0 -65 200 0 200 0 0 -65 0 -65 65 0 65 0 0 130 0
130 -265 0 -265 0 0 65 0 65 -130 0 -130 0 0 -65z"/>
<path d="M10730 6685 l0 -65 65 0 65 0 0 -65 0 -65 135 0 135 0 0 65 0 65
-135 0 -135 0 0 65 0 65 -65 0 -65 0 0 -65z"/>
<path d="M13250 6685 l0 -65 65 0 65 0 0 -65 0 -65 65 0 65 0 0 65 0 65 -65 0
-65 0 0 65 0 65 -65 0 -65 0 0 -65z"/>
<path d="M6750 6555 l0 -65 135 0 135 0 0 65 0 65 -135 0 -135 0 0 -65z"/>
<path d="M13770 6555 l0 -65 70 0 70 0 0 65 0 65 -70 0 -70 0 0 -65z"/>
<path d="M10460 6360 l0 -130 135 0 135 0 0 65 0 65 -65 0 -65 0 0 65 0 65
-70 0 -70 0 0 -130z"/>
<path d="M11390 6425 l0 -65 135 0 135 0 0 65 0 65 -135 0 -135 0 0 -65z"/>
<path d="M12450 6425 l0 -65 65 0 65 0 0 -65 0 -65 -65 0 -65 0 0 -135 0 -135
-65 0 -65 0 0 65 0 65 -135 0 -135 0 0 -65 0 -65 135 0 135 0 0 -65 0 -65 -65
0 -65 0 0 -135 0 -135 -70 0 -70 0 0 -65 0 -65 70 0 70 0 0 65 0 65 130 0 130
0 0 70 0 70 65 0 65 0 0 -70 0 -70 70 0 70 0 0 135 0 135 65 0 65 0 0 -65 0
-65 65 0 65 0 0 65 0 65 -65 0 -65 0 0 65 0 65 65 0 65 0 0 65 0 65 -65 0 -65
0 0 -65 0 -65 -65 0 -65 0 0 65 0 65 -70 0 -70 0 0 70 0 70 70 0 70 0 0 65 0
65 -70 0 -70 0 0 65 0 65 -65 0 -65 0 0 -65z m270 -530 l0 -65 -135 0 -135 0
0 -65 0 -65 -65 0 -65 0 0 65 0 65 65 0 65 0 0 65 0 65 135 0 135 0 0 -65z"/>
<path d="M7550 6295 l0 -65 -65 0 -65 0 0 -70 0 -70 130 0 130 0 0 135 0 135
-65 0 -65 0 0 -65z"/>
<path d="M12850 6295 l0 -65 130 0 130 0 0 65 0 65 -130 0 -130 0 0 -65z"/>
<path d="M13510 6295 l0 -65 65 0 65 0 0 65 0 65 -65 0 -65 0 0 -65z"/>
<path d="M9400 6160 l0 -70 70 0 70 0 0 -65 0 -65 65 0 65 0 0 135 0 135 -135
0 -135 0 0 -70z"/>
<path d="M11130 6160 l0 -70 195 0 195 0 0 70 0 70 -195 0 -195 0 0 -70z"/>
<path d="M10860 6025 l0 -65 65 0 65 0 0 65 0 65 -65 0 -65 0 0 -65z"/>
<path d="M6090 5830 l0 -130 70 0 70 0 0 130 0 130 -70 0 -70 0 0 -130z"/>
<path d="M7550 5830 l0 -130 65 0 65 0 0 130 0 130 -65 0 -65 0 0 -130z"/>
<path d="M11260 5895 l0 -65 65 0 65 0 0 -65 0 -65 65 0 65 0 0 130 0 130
-130 0 -130 0 0 -65z"/>
<path d="M6890 5765 l0 -65 65 0 65 0 0 65 0 65 -65 0 -65 0 0 -65z"/>
<path d="M9400 5765 l0 -65 70 0 70 0 0 65 0 65 -70 0 -70 0 0 -65z"/>
<path d="M9670 5765 l0 -65 65 0 65 0 0 -70 0 -70 65 0 65 0 0 70 0 70 -65 0
-65 0 0 65 0 65 -65 0 -65 0 0 -65z"/>
<path d="M10990 5765 l0 -65 70 0 70 0 0 65 0 65 -70 0 -70 0 0 -65z"/>
<path d="M11790 5765 l0 -65 65 0 65 0 0 65 0 65 -65 0 -65 0 0 -65z"/>
<path d="M13110 5765 l0 -65 70 0 70 0 0 -70 0 -70 -70 0 -70 0 0 -130 0 -130
70 0 70 0 0 130 0 130 65 0 65 0 0 70 0 70 130 0 130 0 0 65 0 65 -265 0 -265
0 0 -65z"/>
<path d="M13910 5765 l0 -65 65 0 65 0 0 65 0 65 -65 0 -65 0 0 -65z"/>
<path d="M6360 5630 l0 -70 -65 0 -65 0 0 -65 0 -65 65 0 65 0 0 65 0 65 65 0
65 0 0 70 0 70 -65 0 -65 0 0 -70z"/>
<path d="M11790 5365 l0 -65 65 0 65 0 0 -65 0 -65 65 0 65 0 0 65 0 65 -65 0
-65 0 0 65 0 65 -65 0 -65 0 0 -65z"/>
<path d="M12320 5365 l0 -65 65 0 65 0 0 65 0 65 -65 0 -65 0 0 -65z"/>
<path d="M14170 5300 l0 -130 65 0 65 0 0 130 0 130 -65 0 -65 0 0 -130z"/>
<path d="M6490 5165 l0 -135 65 0 65 0 0 135 0 135 -65 0 -65 0 0 -135z"/>
<path d="M12850 5235 l0 -65 65 0 65 0 0 -135 0 -135 65 0 65 0 0 65 0 65 70
0 70 0 0 -65 0 -65 65 0 65 0 0 -65 0 -65 -200 0 -200 0 0 -65 0 -65 65 0 65
0 0 -135 0 -135 70 0 70 0 0 65 0 65 130 0 130 0 0 70 0 70 65 0 65 0 0 65 0
65 135 0 135 0 0 200 0 200 -70 0 -70 0 0 65 0 65 -65 0 -65 0 0 -65 0 -65 65
0 65 0 0 -135 0 -135 -65 0 -65 0 0 65 0 65 -65 0 -65 0 0 -65 0 -65 -65 0
-65 0 0 135 0 135 -200 0 -200 0 0 65 0 65 -65 0 -65 0 0 -65z m660 -530 l0
-65 -65 0 -65 0 0 65 0 65 65 0 65 0 0 -65z"/>
<path d="M7280 5100 l0 -70 70 0 70 0 0 70 0 70 -70 0 -70 0 0 -70z"/>
<path d="M7550 5035 l0 -135 65 0 65 0 0 135 0 135 -65 0 -65 0 0 -135z"/>
<path d="M9270 5100 l0 -70 65 0 65 0 0 70 0 70 -65 0 -65 0 0 -70z"/>
<path d="M9800 5035 l0 -135 -65 0 -65 0 0 65 0 65 -65 0 -65 0 0 -65 0 -65
65 0 65 0 0 -65 0 -65 -65 0 -65 0 0 -65 0 -65 65 0 65 0 0 -70 0 -70 -65 0
-65 0 0 -65 0 -65 65 0 65 0 0 65 0 65 65 0 65 0 0 200 0 200 65 0 65 0 0 135
0 135 -65 0 -65 0 0 -135z"/>
<path d="M12580 4965 l0 -65 70 0 70 0 0 65 0 65 -70 0 -70 0 0 -65z"/>
<path d="M6750 4835 l0 -65 70 0 70 0 0 -65 0 -65 65 0 65 0 0 65 0 65 -65 0
-65 0 0 65 0 65 -70 0 -70 0 0 -65z"/>
<path d="M7950 4835 l0 -65 -70 0 -70 0 0 -65 0 -65 70 0 70 0 0 65 0 65 65 0
65 0 0 65 0 65 -65 0 -65 0 0 -65z"/>
<path d="M8480 4700 l0 -200 65 0 65 0 0 -65 0 -65 130 0 130 0 0 65 0 65 -65
0 -65 0 0 70 0 70 -65 0 -65 0 0 130 0 130 -65 0 -65 0 0 -200z"/>
<path d="M10460 4835 l0 -65 70 0 70 0 0 65 0 65 -70 0 -70 0 0 -65z"/>
<path d="M10730 4835 l0 -65 65 0 65 0 0 65 0 65 -65 0 -65 0 0 -65z"/>
<path d="M12050 4770 l0 -130 70 0 70 0 0 130 0 130 -70 0 -70 0 0 -130z"/>
<path d="M8210 4705 l0 -65 65 0 65 0 0 65 0 65 -65 0 -65 0 0 -65z"/>
<path d="M11660 4705 l0 -65 130 0 130 0 0 65 0 65 -130 0 -130 0 0 -65z"/>
<path d="M12320 4570 l0 -200 65 0 65 0 0 135 0 135 65 0 65 0 0 65 0 65 -130
0 -130 0 0 -200z"/>
<path d="M7150 4505 l0 -135 135 0 135 0 0 -130 0 -130 130 0 130 0 0 65 0 65
65 0 65 0 0 65 0 65 -65 0 -65 0 0 -65 0 -65 -65 0 -65 0 0 65 0 65 -65 0 -65
0 0 65 0 65 -70 0 -70 0 0 70 0 70 -65 0 -65 0 0 -135z"/>
<path d="M9140 4570 l0 -70 65 0 65 0 0 70 0 70 -65 0 -65 0 0 -70z"/>
<path d="M10330 4570 l0 -70 65 0 65 0 0 70 0 70 -65 0 -65 0 0 -70z"/>
<path d="M10860 4570 l0 -70 65 0 65 0 0 70 0 70 -65 0 -65 0 0 -70z"/>
<path d="M14040 4505 l0 -135 65 0 65 0 0 135 0 135 -65 0 -65 0 0 -135z"/>
<path d="M11660 4435 l0 -65 65 0 65 0 0 65 0 65 -65 0 -65 0 0 -65z"/>
<path d="M12580 4305 l0 -195 -65 0 -65 0 0 -70 0 -70 65 0 65 0 0 70 0 70 70
0 70 0 0 195 0 195 -70 0 -70 0 0 -195z"/>
<path d="M12850 4435 l0 -65 65 0 65 0 0 65 0 65 -65 0 -65 0 0 -65z"/>
<path d="M13640 4435 l0 -65 65 0 65 0 0 65 0 65 -65 0 -65 0 0 -65z"/>
<path d="M10860 4240 l0 -130 65 0 65 0 0 130 0 130 -65 0 -65 0 0 -130z"/>
<path d="M12050 4305 l0 -65 70 0 70 0 0 -65 0 -65 65 0 65 0 0 65 0 65 -65 0
-65 0 0 65 0 65 -70 0 -70 0 0 -65z"/>
<path d="M13380 4305 l0 -65 -65 0 -65 0 0 -65 0 -65 -70 0 -70 0 0 -70 0 -70
-65 0 -65 0 0 -65 0 -65 -65 0 -65 0 0 -65 0 -65 -135 0 -135 0 0 -65 0 -65
200 0 200 0 0 65 0 65 65 0 65 0 0 130 0 130 70 0 70 0 0 -65 0 -65 65 0 65 0
0 65 0 65 -65 0 -65 0 0 70 0 70 130 0 130 0 0 130 0 130 -65 0 -65 0 0 -65z"/>
<path d="M10200 4175 l0 -65 -65 0 -65 0 0 -135 0 -135 65 0 65 0 0 65 0 65
65 0 65 0 0 135 0 135 -65 0 -65 0 0 -65z"/>
<path d="M11660 4175 l0 -65 130 0 130 0 0 65 0 65 -130 0 -130 0 0 -65z"/>
<path d="M7810 4040 l0 -70 70 0 70 0 0 -65 0 -65 65 0 65 0 0 65 0 65 -65 0
-65 0 0 70 0 70 -70 0 -70 0 0 -70z"/>
<path d="M8210 3905 l0 -65 65 0 65 0 0 -130 0 -130 70 0 70 0 0 -135 0 -135
65 0 65 0 0 200 0 200 -65 0 -65 0 0 65 0 65 -70 0 -70 0 0 65 0 65 -65 0 -65
0 0 -65z"/>
<path d="M8610 3905 l0 -65 65 0 65 0 0 -65 0 -65 200 0 200 0 0 65 0 65 -135
0 -135 0 0 65 0 65 -130 0 -130 0 0 -65z"/>
<path d="M9540 3905 l0 -65 65 0 65 0 0 65 0 65 -65 0 -65 0 0 -65z"/>
<path d="M11790 3905 l0 -65 65 0 65 0 0 65 0 65 -65 0 -65 0 0 -65z"/>
<path d="M13910 3775 l0 -65 65 0 65 0 0 65 0 65 -65 0 -65 0 0 -65z"/>
<path d="M8080 3575 l0 -135 65 0 65 0 0 135 0 135 -65 0 -65 0 0 -135z"/>
<path d="M9400 3510 l0 -200 135 0 135 0 0 -65 0 -65 65 0 65 0 0 65 0 65 -65
0 -65 0 0 65 0 65 -65 0 -65 0 0 135 0 135 -70 0 -70 0 0 -200z"/>
<path d="M11660 3575 l0 -135 -70 0 -70 0 0 -65 0 -65 70 0 70 0 0 -65 0 -65
65 0 65 0 0 -65 0 -65 65 0 65 0 0 65 0 65 -65 0 -65 0 0 65 0 65 -65 0 -65 0
0 65 0 65 130 0 130 0 0 70 0 70 -65 0 -65 0 0 65 0 65 -65 0 -65 0 0 -135z"/>
<path d="M12320 3510 l0 -70 65 0 65 0 0 -65 0 -65 -65 0 -65 0 0 -65 0 -65
65 0 65 0 0 -65 0 -65 -130 0 -130 0 0 -70 0 -70 330 0 330 0 0 135 0 135 -65
0 -65 0 0 -65 0 -65 -70 0 -70 0 0 195 0 195 -65 0 -65 0 0 70 0 70 -65 0 -65
0 0 -70z"/>
<path d="M13250 3375 l0 -65 65 0 65 0 0 65 0 65 -65 0 -65 0 0 -65z"/>
<path d="M13770 3375 l0 -65 -65 0 -65 0 0 -65 0 -65 65 0 65 0 0 65 0 65 70
0 70 0 0 65 0 65 -70 0 -70 0 0 -65z"/>
<path d="M8610 3115 l0 -65 200 0 200 0 0 65 0 65 -200 0 -200 0 0 -65z"/>
<path d="M9140 3115 l0 -65 200 0 200 0 0 65 0 65 -200 0 -200 0 0 -65z"/>
<path d="M10330 3045 l0 -135 -65 0 -65 0 0 70 0 70 -65 0 -65 0 0 -70 0 -70
-70 0 -70 0 0 -65 0 -65 70 0 70 0 0 65 0 65 65 0 65 0 0 -65 0 -65 65 0 65 0
0 65 0 65 65 0 65 0 0 135 0 135 -65 0 -65 0 0 -135z"/>
<path d="M13110 2980 l0 -70 -65 0 -65 0 0 -65 0 -65 65 0 65 0 0 65 0 65 70
0 70 0 0 70 0 70 -70 0 -70 0 0 -70z"/>
<path d="M13510 2980 l0 -70 -65 0 -65 0 0 -130 0 -130 -65 0 -65 0 0 -65 0
-65 65 0 65 0 0 65 0 65 65 0 65 0 0 130 0 130 65 0 65 0 0 70 0 70 -65 0 -65
0 0 -70z"/>
<path d="M11390 2845 l0 -65 -130 0 -130 0 0 -65 0 -65 65 0 65 0 0 -65 0 -65
-65 0 -65 0 0 -70 0 -70 65 0 65 0 0 70 0 70 65 0 65 0 0 -70 0 -70 65 0 65 0
0 -65 0 -65 70 0 70 0 0 65 0 65 65 0 65 0 0 -130 0 -130 65 0 65 0 0 130 0
130 -65 0 -65 0 0 70 0 70 -65 0 -65 0 0 -70 0 -70 -70 0 -70 0 0 135 0 135
70 0 70 0 0 65 0 65 -70 0 -70 0 0 65 0 65 -65 0 -65 0 0 -65z m130 -130 l0
-65 -65 0 -65 0 0 65 0 65 65 0 65 0 0 -65z"/>
<path d="M10600 2650 l0 -130 65 0 65 0 0 -70 0 -70 65 0 65 0 0 -65 0 -65 65
0 65 0 0 -65 0 -65 70 0 70 0 0 -65 0 -65 65 0 65 0 0 65 0 65 65 0 65 0 0 65
0 65 -65 0 -65 0 0 -65 0 -65 -65 0 -65 0 0 65 0 65 -70 0 -70 0 0 65 0 65
-65 0 -65 0 0 70 0 70 -65 0 -65 0 0 130 0 130 -65 0 -65 0 0 -130z"/>
<path d="M12190 2450 l0 -70 -70 0 -70 0 0 -65 0 -65 70 0 70 0 0 65 0 65 130
0 130 0 0 70 0 70 -130 0 -130 0 0 -70z"/>
<path d="M12980 2450 l0 -70 65 0 65 0 0 70 0 70 -65 0 -65 0 0 -70z"/>
<path d="M10070 2315 l0 -65 65 0 65 0 0 65 0 65 -65 0 -65 0 0 -65z"/>
<path d="M12980 2185 l0 -65 65 0 65 0 0 65 0 65 -65 0 -65 0 0 -65z"/>
<path d="M12190 2055 l0 -65 195 0 195 0 0 65 0 65 -195 0 -195 0 0 -65z"/>
<path d="M11660 1920 l0 -70 65 0 65 0 0 70 0 70 -65 0 -65 0 0 -70z"/>
<path d="M11920 1785 l0 -65 65 0 65 0 0 65 0 65 -65 0 -65 0 0 -65z"/>
</g>
</svg>
